<?xml version="1.0" encoding="iso-8859-1"?>
<!-- Generator: Adobe Illustrator 17.1.0, SVG Export Plug-In . SVG Version: 6.00 Build 0)  -->
<!DOCTYPE svg PUBLIC "-//W3C//DTD SVG 1.1//EN" "http://www.w3.org/Graphics/SVG/1.1/DTD/svg11.dtd">
<svg version="1.1" id="Capa_1" xmlns="http://www.w3.org/2000/svg" xmlns:xlink="http://www.w3.org/1999/xlink" x="0px" y="0px"
	height="30" width="40" fill ="#ffff" viewBox="0 0 430.157 430.157" style="enable-background:new 0 0 430.157 430.157;" xml:space="preserve">
<g>
	<path d="M13.708,72.935L152.281,99.77c5.592,1.083,11.659,2.153,13.811,2.437l7.594,0.043l0.325-0.043
		c2.152-0.283,8.217-1.354,13.809-2.437l138.574-26.835c2.008-0.389,8.12-1.571,8.095-6.806c-0.024-5.234-6.146-6.359-8.158-6.729
		l-145.54-26.744c-2.905-0.533-6.719-0.827-10.739-0.827c-4.02,0-7.833,0.294-10.739,0.827L13.772,59.4
		c-2.012,0.37-8.134,1.495-8.159,6.729C5.589,71.364,11.701,72.546,13.708,72.935z"/>
	<path d="M340.103,208.829v-89.595c0-7.569-5.585-13.277-12.991-13.277c-0.917,0-1.852,0.091-2.777,0.27l-130.434,25.258
		c-5.304,1.027-13.992,2.36-19.322,2.967c-0.011,0.001-1.173,0.108-4.527,0.108c-3.295,0-4.475-0.104-4.483-0.104h0
		c-5.376-0.611-14.064-1.944-19.368-2.972L15.768,106.226c-0.926-0.179-1.86-0.27-2.777-0.27C5.585,105.957,0,111.665,0,119.234
		v178.785c0,7.92,6.091,15.304,13.867,16.811l145.417,28.159c2.916,0.564,6.74,0.875,10.768,0.875c4.029,0,7.854-0.311,10.769-0.875
		l63.683-12.332c11.7,39.095,47.995,67.672,90.845,67.672c52.278,0,94.81-42.531,94.81-94.81
		C430.157,252.835,390.181,211.315,340.103,208.829z M335.348,368.329c-35.736,0-64.809-29.073-64.809-64.81
		s29.073-64.81,64.809-64.81c35.736,0,64.81,29.073,64.81,64.81S371.084,368.329,335.348,368.329z"/>
	<path d="M359.463,271.633l-28.559,33.445l-12.055-12.055c-5.857-5.857-15.355-5.857-21.213,0c-5.858,5.857-5.858,15.355,0,21.213
		l15.752,15.752c4.757,4.758,11.207,7.437,17.825,7.437c0.32,0,0.641-0.006,0.962-0.019c6.953-0.273,13.567-3.507,18.148-8.871
		l31.955-37.422c5.379-6.3,4.633-15.768-1.667-21.147C374.31,264.587,364.842,265.333,359.463,271.633z"/>
</g>
<g>
</g>
<g>
</g>
<g>
</g>
<g>
</g>
<g>
</g>
<g>
</g>
<g>
</g>
<g>
</g>
<g>
</g>
<g>
</g>
<g>
</g>
<g>
</g>
<g>
</g>
<g>
</g>
<g>
</g>
</svg>
