<?xml version="1.0" encoding="utf-8"?>
<!-- Svg Vector Icons : http://www.onlinewebfonts.com/icon -->
<!DOCTYPE svg PUBLIC "-//W3C//DTD SVG 1.1//EN" "http://www.w3.org/Graphics/SVG/1.1/DTD/svg11.dtd">
<svg version="1.1" width="22" height="22" xmlns="http://www.w3.org/2000/svg" xmlns:xlink="http://www.w3.org/1999/xlink" x="0px" y="0px" viewBox="0 0 256 256" enable-background="new 0 0 256 256" xml:space="preserve">
<metadata> Svg Vector Icons : http://www.onlinewebfonts.com/icon </metadata>
<g><g><path width="20" height="20" fill="#000000" d="M228.3,254.6H50.9c-9.6,0-17.7-7.8-17.7-17.1v-33.4c0-3,2.7-5.6,5.8-5.6c3.1,0,5.8,2.6,5.8,5.6v33.4c0,3.3,2.7,5.9,6.2,5.9h177.4c3.5,0,6.2-2.6,6.2-5.9V18.4c0-3.3-2.7-5.9-6.2-5.9H50.9c-3.5,0-6.2,2.6-6.2,5.9v33.4c0,3-2.7,5.6-5.8,5.6c-3.1,0-5.8-2.6-5.8-5.6V18.4c0-9.3,8.1-17.1,17.7-17.1h177.4c9.6,0,17.7,7.8,17.7,17.1v219.2C246,246.9,237.9,254.6,228.3,254.6z M97.5,168.2h83.7c-3.5-15.2-20.8-26.7-42-26.7C118.7,141.5,101,153.4,97.5,168.2z M193.6,179.3h-108v-5.6c0-24.1,24.3-43.4,54-43.4c29.7,0,54,19.6,54,43.4L193.6,179.3L193.6,179.3z M59.7,81.8h-44c-3.1,0-5.8-2.6-5.8-5.6c0-3,2.7-5.6,5.8-5.6h44c3.1,0,5.8,2.6,5.8,5.6C65.5,79.2,62.8,81.8,59.7,81.8z M59.7,116.3h-44c-3.1,0-5.8-2.6-5.8-5.6s2.7-5.6,5.8-5.6h44c3.1,0,5.8,2.6,5.8,5.6S62.8,116.3,59.7,116.3z M59.7,150.4h-44c-3.1,0-5.8-2.6-5.8-5.6c0-3,2.7-5.6,5.8-5.6h44c3.1,0,5.8,2.6,5.8,5.6C65.5,147.8,62.8,150.4,59.7,150.4z M59.7,184.9h-44c-3.1,0-5.8-2.6-5.8-5.6c0-3,2.7-5.6,5.8-5.6h44c3.1,0,5.8,2.6,5.8,5.6C65.5,182.3,62.8,184.9,59.7,184.9z"/><path fill="#000000" d="M139.6,80.3c-14.3,0-25.8,11.1-25.8,24.8c0,13.7,11.6,24.8,25.8,24.8c14.3,0,25.8-11.1,25.8-24.8C165.4,91.5,153.8,80.3,139.6,80.3 M139.6,140.8c-20.4,0-37.4-15.9-37.4-36c0-20,16.6-36,37.4-36c20.4,0,37.4,15.9,37.4,36C177,124.8,160,140.8,139.6,140.8"/></g></g>
</svg>