<?xml version="1.0" standalone="no"?>
<!DOCTYPE svg PUBLIC "-//W3C//DTD SVG 20010904//EN"
 "http://www.w3.org/TR/2001/REC-SVG-20010904/DTD/svg10.dtd">
<svg version="1.0" xmlns="http://www.w3.org/2000/svg"
 width="30" height="30" viewBox="0 0 474.000000 421.000000"
 preserveAspectRatio="xMidYMid meet">

<g transform="translate(0.000000,421.000000) scale(0.100000,-0.100000)"
fill="#fff" stroke="none">
<path d="M1585 4126 c-269 -51 -415 -178 -476 -413 -16 -63 -20 -110 -19 -243
0 -91 4 -180 9 -198 6 -21 6 -55 0 -94 -14 -88 1 -145 57 -208 25 -27 53 -52
63 -55 11 -3 33 -33 50 -67 103 -201 262 -317 477 -349 184 -28 361 50 478
209 86 118 156 311 181 497 20 152 19 162 -10 190 -52 53 -115 13 -115 -74 0
-72 -28 -217 -62 -319 -76 -229 -206 -358 -375 -369 -73 -5 -168 14 -232 47
-95 48 -189 154 -235 263 -24 55 -34 67 -71 85 -62 30 -79 60 -72 125 7 54 25
77 61 77 12 0 48 12 81 25 58 24 68 25 298 25 269 0 267 -1 353 80 86 81 156
107 319 117 88 5 107 3 146 -14 l46 -20 6 -78 c4 -43 9 -80 11 -82 6 -6 75 24
90 39 39 40 47 107 20 164 -23 49 -78 90 -151 115 l-62 20 -22 67 c-77 237
-183 365 -350 423 -56 20 -88 23 -244 25 -120 2 -203 -1 -250 -10z"/>
<path d="M1404 2555 c-31 -13 -44 -32 -44 -65 0 -19 -33 -40 -378 -246 -325
-193 -507 -346 -574 -481 -32 -66 -33 -72 -32 -183 3 -192 42 -438 105 -660
16 -58 21 -106 22 -215 l2 -140 181 -3 180 -2 39 -40 39 -40 -41 0 c-23 0 -44
-4 -48 -9 -3 -5 -19 -12 -35 -16 -17 -4 -35 -15 -41 -26 -13 -26 -13 -312 0
-337 6 -11 16 -22 23 -24 7 -2 79 -2 160 0 l147 4 3 121 3 122 40 -37 c68 -60
197 -149 265 -182 59 -28 73 -31 160 -30 74 1 121 8 215 33 136 37 388 120
645 211 165 58 179 61 240 56 36 -3 99 -15 140 -26 104 -27 239 -26 441 5 194
29 236 44 282 94 44 49 61 100 54 164 -4 44 -10 56 -42 84 -37 32 -38 32 -158
35 l-121 3 -6 30 c-15 69 -59 123 -122 150 -49 20 -320 21 -396 1 l-53 -13 7
46 c4 25 15 57 25 70 18 22 19 51 19 522 l0 499 260 0 260 0 0 -239 c0 -220 1
-241 19 -262 19 -24 20 -24 246 -24 226 0 227 0 246 24 18 21 19 42 19 262 l0
239 260 0 260 0 0 -655 0 -655 -275 0 c-262 0 -276 -1 -295 -20 -25 -25 -26
-61 -1 -91 l19 -24 304 -3 c166 -2 313 0 326 3 12 3 31 14 42 25 20 20 20 37
20 765 l0 746 -25 25 -25 24 -929 0 c-511 -1 -942 2 -957 6 -16 4 -40 17 -54
29 -14 13 -79 50 -145 83 -66 33 -128 69 -138 79 -9 11 -23 40 -30 64 -16 56
-53 77 -98 59 -52 -22 -52 -98 2 -184 29 -48 31 -56 27 -123 -4 -55 -13 -89
-36 -135 -30 -62 -54 -133 -88 -255 -9 -35 -20 -63 -23 -63 -4 0 -34 63 -66
140 -59 137 -61 141 -135 207 -93 84 -176 172 -212 225 -25 36 -28 50 -28 122
0 113 -33 158 -96 131z m-29 -265 c10 -31 116 -168 174 -225 28 -27 51 -53 51
-57 0 -4 -13 -14 -30 -23 -16 -8 -55 -36 -86 -61 -52 -43 -56 -45 -70 -27 -35
46 -204 293 -209 305 -3 8 23 30 72 60 43 26 81 47 85 48 4 0 10 -9 13 -20z
m978 -175 c9 -10 2 -143 -9 -183 -6 -22 -8 -21 -49 17 -24 22 -57 47 -74 55
-25 13 -29 20 -22 34 5 9 12 40 16 67 10 80 8 78 72 48 32 -16 62 -32 66 -38z
m-898 -1330 c83 -100 146 -164 177 -181 34 -18 68 -18 182 1 50 8 166 26 259
40 410 62 509 79 615 106 100 26 131 29 262 29 122 0 151 -3 164 -16 9 -8 16
-22 16 -30 0 -11 -25 -14 -138 -14 -108 0 -142 -3 -160 -16 -28 -19 -29 -63
-3 -95 l19 -24 311 -3 311 -3 -14 -28 c-20 -38 -47 -47 -210 -71 -163 -24
-322 -26 -392 -6 -27 8 -94 20 -149 27 l-100 11 -120 -42 c-540 -191 -808
-270 -913 -270 -68 0 -137 34 -262 131 -110 85 -343 310 -332 320 4 4 36 17
71 29 84 28 234 103 291 145 25 18 48 33 51 32 3 -1 32 -33 64 -72z"/>
<path d="M2636 306 c-24 -23 -26 -32 -26 -109 0 -70 3 -89 21 -111 26 -33 62
-34 95 0 25 24 26 30 22 114 -3 96 -12 113 -60 125 -21 5 -33 1 -52 -19z"/>
</g>
</svg>
