<svg version="1.1" xmlns="http://www.w3.org/2000/svg" width="45" height="45"  fill="#fffff">
<path d="M0 0 C3.7496605 1.46385575 7.16730641 3.13161165 10.6640625 5.1328125 C11.77217285 5.76582275 12.8802832 6.39883301 14.02197266 7.05102539 C15.22309985 7.74214509 16.4241057 8.4334757 17.625 9.125 C18.87936865 9.8443648 20.13376362 10.5636837 21.38818359 11.28295898 C30.97234313 16.78888395 40.48690865 22.40792886 49.98413086 28.0625 C58.75903192 33.28211375 67.58698359 38.40402993 76.4375 43.49414062 C86.66139385 49.37442866 96.84933435 55.31518138 107.03222656 61.26611328 C112.01990957 64.1801084 117.01008705 67.08982568 122 70 C124.0000118 71.16664643 126.00001181 72.33331309 128 73.5 C128.99 74.0775 129.98 74.655 131 75.25 C134 77 137 78.75 140 80.5 C140.99112793 81.07814453 141.98225586 81.65628906 143.00341797 82.25195312 C144.99207202 83.41202833 146.98067923 84.57218384 148.96923828 85.73242188 C154.14243887 88.75061733 159.31658403 91.76717659 164.4921875 94.78125 C165.56082031 95.40386719 166.62945312 96.02648437 167.73046875 96.66796875 C169.75620514 97.84818039 171.78222491 99.02790584 173.80859375 100.20703125 C174.73542969 100.74714844 175.66226563 101.28726563 176.6171875 101.84375 C177.41753418 102.30974609 178.21788086 102.77574219 179.04248047 103.25585938 C180.01846191 103.83142578 180.99444336 104.40699219 182 105 C182.80401497 105.2343532 183.60802994 105.4687064 184.436409 105.71016121 C187.86953881 107.024723 189.6188914 108.16313318 192 111 C194.04652436 117.98242103 193.25855505 125.78911542 193.13525391 132.97802734 C193.13243291 135.26459631 193.13401701 137.55117434 193.13967896 139.83773804 C193.14255014 146.04458916 193.0837297 152.24951074 193.01393938 158.45591307 C192.95145715 164.94207717 192.94555456 171.42828475 192.9336853 177.91470337 C192.90612793 188.80139599 192.843653 199.68737548 192.75439453 210.57373047 C192.66256547 221.78528305 192.59180093 232.99664323 192.54931641 244.20849609 C192.54668917 244.89990273 192.54406194 245.59130936 192.54135509 246.30366771 C192.52830445 249.77234722 192.51566744 253.2410281 192.50323606 256.70970988 C192.39961445 285.47360832 192.22277914 314.23678718 192 343 C188.56095977 341.65675957 185.47498956 340.19933389 182.32421875 338.26953125 C181.42622559 337.72159912 180.52823242 337.17366699 179.60302734 336.60913086 C178.64090332 336.01624268 177.6787793 335.42335449 176.6875 334.8125 C175.6763916 334.19318604 174.6652832 333.57387207 173.62353516 332.93579102 C164.33082354 327.23191459 155.08631128 321.45102512 145.84765625 315.66015625 C140.34712596 312.21359274 134.83318448 308.78916874 129.3125 305.375 C128.45551514 304.84495361 127.59853027 304.31490723 126.71557617 303.76879883 C124.14397737 302.17877824 121.57205388 300.58928434 119 299 C108.08678035 292.25666961 97.18514938 285.49609652 86.3125 278.6875 C77.89865643 273.41940643 69.45932359 268.19473068 61 263 C50.52745267 256.56755579 40.08398799 250.09076239 29.67578125 243.5546875 C25.93545505 241.20603625 22.18280794 238.8794494 18.41796875 236.5703125 C17.10687134 235.75965332 17.10687134 235.75965332 15.76928711 234.93261719 C14.14559252 233.92872423 12.51777827 232.93144915 10.88500977 231.94238281 C6.13714933 228.99070858 2.56185808 226.12371617 0 221 C-0.09600281 218.11515663 -0.13009405 215.25452449 -0.12025452 212.36947632 C-0.12110894 211.4653024 -0.12196337 210.56112848 -0.12284368 209.62955534 C-0.12449867 206.5816304 -0.11897678 203.53375977 -0.11352539 200.48583984 C-0.1132435 198.30823264 -0.11340129 196.13062534 -0.1139679 193.95301819 C-0.11425579 188.02563144 -0.10836042 182.09826477 -0.10139394 176.1708827 C-0.095159 169.98221913 -0.09455649 163.79355514 -0.09336853 157.60488892 C-0.09043278 146.54604056 -0.0832042 135.48720055 -0.07372581 124.42835601 C-0.06177797 110.41421109 -0.0555983 96.40006732 -0.05032361 82.38591838 C-0.03986015 54.92394043 -0.0222615 27.46197074 0 0 Z " fill="#ffffff" transform="translate(16,153)"/>
<path d="M0 0 C19.41513413 15.83036047 34.05409201 37.67987498 37 63 C39.00706443 91.38316441 34.11130766 116.2402984 15.84375 138.64453125 C-0.57892148 157.46699451 -22.83614019 171.43272251 -48.21777344 173.22753906 C-76.8329536 174.49950262 -101.20094475 168.80835389 -123.1875 149.625 C-141.72962913 132.23989973 -154.23970686 110.00534464 -155.3828125 84.2890625 C-156.09445376 55.78869783 -149.21659255 31.57486407 -129.3359375 10.37109375 C-94.83017582 -24.65398542 -39.47352935 -30.18232772 0 0 Z M-51.25 55.9375 C-51.7138208 56.49655029 -52.1776416 57.05560059 -52.65551758 57.6315918 C-57.5954337 63.63024057 -62.32020414 69.79749399 -67 76 C-70.87739423 75.2080216 -72.97341964 73.54869925 -76 71 C-79.714608 69.142696 -83.94593118 69.55717094 -88 70 C-92.83858548 72.32968931 -95.67031069 75.16141452 -98 80 C-98.87637002 85.49072642 -98.76746929 89.62120697 -95.43554688 94.25976562 C-92.21391474 98.16517275 -88.5936146 101.69082899 -85 105.25 C-84.19304687 106.0646875 -83.38609375 106.879375 -82.5546875 107.71875 C-81.77351563 108.49734375 -80.99234375 109.2759375 -80.1875 110.078125 C-79.47980469 110.78356445 -78.77210938 111.48900391 -78.04296875 112.21582031 C-74.54540055 115.27034091 -71.74492154 116.30303861 -67.125 116.375 C-66.30257812 116.40335937 -65.48015625 116.43171875 -64.6328125 116.4609375 C-58.46142422 115.38048673 -54.59031514 110.78296644 -50.8125 106.125 C-50.34255615 105.55765137 -49.8726123 104.99030273 -49.38842773 104.40576172 C-45.11958869 99.22232374 -40.9736252 93.94105195 -36.8515625 88.640625 C-34.83004016 86.04659844 -32.77993578 83.47819433 -30.7109375 80.921875 C-30.16493896 80.24624512 -29.61894043 79.57061523 -29.05639648 78.87451172 C-28.00155629 77.57167033 -26.9439099 76.27109441 -25.88305664 74.97314453 C-21.37802253 69.39895208 -19.51560529 65.77427506 -19.6875 58.46875 C-20.3197166 53.47423884 -23.02835901 50.87910375 -26.625 47.625 C-37.13556088 42.56435957 -44.45957532 47.57937676 -51.25 55.9375 Z " fill="#ffffff" transform="translate(459,323)"/>
<path d="M0 0 C0 40.59 0 81.18 0 123 C-10 122 -10 122 -14.97265625 121.4296875 C-49.52653789 117.56196666 -83.14554166 125.64784326 -110.6875 147.4753418 C-112.13129394 148.64248471 -113.56600055 149.8208439 -115 151 C-115.69738281 151.55558594 -116.39476562 152.11117187 -117.11328125 152.68359375 C-139.26471482 170.80749394 -153.96794265 200.87540627 -157.70263672 228.95849609 C-160.30414761 255.56738171 -158.03736915 285.42531306 -142.75 308.30859375 C-142 310 -142 310 -142.18530273 311.92285156 C-143.2945601 314.75100909 -144.67739882 315.40400261 -147.28515625 316.92578125 C-148.65377808 317.73958252 -148.65377808 317.73958252 -150.05004883 318.56982422 C-151.04415771 319.14490723 -152.0382666 319.71999023 -153.0625 320.3125 C-155.15207576 321.54903543 -157.24058158 322.78738036 -159.328125 324.02734375 C-160.41802734 324.67171387 -161.50792969 325.31608398 -162.63085938 325.97998047 C-166.04800765 328.02878372 -169.42858566 330.12623387 -172.796875 332.25390625 C-173.88734131 332.94250732 -174.97780762 333.6311084 -176.10131836 334.34057617 C-178.22084388 335.68338817 -180.33887888 337.0285561 -182.45532227 338.3762207 C-183.89476196 339.28440552 -183.89476196 339.28440552 -185.36328125 340.2109375 C-186.21188721 340.75024902 -187.06049316 341.28956055 -187.93481445 341.84521484 C-190 343 -190 343 -192 343 C-192.548341 313.68411589 -192.97265173 284.36859705 -193.22556791 255.04862791 C-193.25558232 251.58172658 -193.2866463 248.1148354 -193.31835938 244.64794922 C-193.32465483 243.95779894 -193.33095028 243.26764866 -193.3374365 242.55658473 C-193.44167498 231.40323129 -193.63077878 220.25286799 -193.85166711 209.10128449 C-194.07668396 197.64510321 -194.20772834 186.19133931 -194.25812387 174.73288453 C-194.28935697 168.30083589 -194.36241837 161.87554914 -194.53752136 155.4456749 C-195.59269039 115.15324276 -195.59269039 115.15324276 -189.72317505 107.55490875 C-184.26157994 102.42450989 -178.31251326 100.01654118 -171.17903137 98.03668594 C-165.64450244 96.23186942 -160.91320863 93.06398223 -156 90 C-154.00341389 88.82750052 -152.00379645 87.660134 -150 86.5 C-148.515 85.63375 -148.515 85.63375 -147 84.75 C-66 37.5 -66 37.5 -62.99951172 35.74975586 C-61.00109209 34.58398396 -59.00271963 33.4181312 -57.00439453 32.25219727 C-51.98060014 29.32117301 -46.95597368 26.39159316 -41.9296875 23.46484375 C-39.91144859 22.28907923 -37.89321936 21.11329808 -35.875 19.9375 C-34.8957959 19.36757324 -33.9165918 18.79764648 -32.90771484 18.21044922 C-27.81424128 15.24157114 -22.73423569 12.25213352 -17.671875 9.23046875 C-16.14844482 8.32276733 -16.14844482 8.32276733 -14.59423828 7.39672852 C-12.65281649 6.23829258 -10.71358908 5.07616907 -8.77685547 3.90991211 C-7.91463379 3.39565674 -7.05241211 2.88140137 -6.1640625 2.3515625 C-5.40561035 1.89604004 -4.6471582 1.44051758 -3.86572266 0.97119141 C-2 0 -2 0 0 0 Z " fill="#ffffff" transform="translate(432,153)"/>
<path d="M0 0 C2.71952249 1.38588563 5.2880703 2.90782101 7.87548828 4.52685547 C8.85090576 5.10709473 9.82632324 5.68733398 10.83129883 6.28515625 C12.92232325 7.53207469 15.00658076 8.79040004 17.08447266 10.05908203 C21.44630409 12.71760906 25.84667157 15.30893478 30.24584961 17.9050293 C33.63606966 19.90810737 37.01960973 21.92214188 40.40283203 23.93701172 C50.47097552 29.91582506 60.62839247 35.74001566 70.78710938 41.56323242 C73.31141659 43.02594475 75.81525397 44.5192924 78.31298828 46.02685547 C77.06103539 49.78271414 75.84044989 50.26331321 72.54736328 52.37060547 C71.52731201 53.0297998 70.50726074 53.68899414 69.45629883 54.36816406 C68.32521661 55.08776134 67.19411243 55.8073241 66.06298828 56.52685547 C64.88767905 57.28327006 63.71296659 58.04061261 62.53881836 58.79882812 C60.05946994 60.39915475 57.57782099 61.99582474 55.09472656 63.59033203 C49.64016838 67.09834651 44.22084815 70.65997123 38.80026245 74.22015381 C35.75383903 76.22038455 32.70514157 78.217144 29.65673828 80.21435547 C28.42886638 81.01903181 27.20100179 81.82371929 25.97314453 82.62841797 C22.36802108 84.9909244 18.76242774 87.352713 15.15673828 89.71435547 C2.53834035 97.979384 -10.07665409 106.24956391 -22.68701172 114.52685547 C-34.09166987 122.01273997 -45.49897977 129.49455249 -56.91162109 136.96826172 C-58.09066184 137.74039059 -59.26969829 138.51252602 -60.44873047 139.28466797 C-61.03250458 139.66697571 -61.61627869 140.04928345 -62.21774292 140.44317627 C-66.05532837 142.95683045 -69.89127056 145.47297631 -73.72627258 147.99057007 C-76.40172073 149.74686313 -79.07763138 151.50245081 -81.75357056 153.25799561 C-83.02835703 154.09460001 -84.30291878 154.93154695 -85.57723999 155.76885986 C-87.34241875 156.92865919 -89.10838257 158.08725407 -90.87451172 159.24560547 C-92.38078125 160.23463867 -92.38078125 160.23463867 -93.91748047 161.24365234 C-94.83142578 161.83210937 -95.74537109 162.42056641 -96.68701172 163.02685547 C-97.54939453 163.62046875 -98.41177734 164.21408203 -99.30029297 164.82568359 C-101.68701172 166.02685547 -101.68701172 166.02685547 -103.67236328 165.89477539 C-106.20482345 164.80377976 -108.53828074 163.53028187 -110.92138672 162.14013672 C-111.9579541 161.5387085 -112.99452148 160.93728027 -114.0625 160.31762695 C-115.17608887 159.66479736 -116.28967773 159.01196777 -117.43701172 158.33935547 C-118.60717106 157.65801632 -119.77758509 156.97711442 -120.94824219 156.29663086 C-123.9532475 154.54836626 -126.95488874 152.79441135 -129.95568848 151.03894043 C-132.60114581 149.49247729 -135.24960929 147.95118799 -137.89794922 146.40966797 C-141.84780334 144.10958466 -145.79561152 141.80605064 -149.74169922 139.49951172 C-153.76484199 137.14814339 -157.79104777 134.80215156 -161.81982422 132.46044922 C-166.81020327 129.55927822 -171.79492003 126.64861539 -176.77539062 123.73046875 C-178.73693636 122.58275232 -180.70019104 121.43795225 -182.66503906 120.29589844 C-185.49001667 118.65233482 -188.30799236 116.9973608 -191.12451172 115.33935547 C-192.40406738 114.59951416 -192.40406738 114.59951416 -193.70947266 113.84472656 C-194.48452148 113.38533691 -195.25957031 112.92594727 -196.05810547 112.45263672 C-196.73800537 112.05471924 -197.41790527 111.65680176 -198.1184082 111.24682617 C-199.68701172 110.02685547 -199.68701172 110.02685547 -200.68701172 107.02685547 C-200.13166748 106.71683594 -199.57632324 106.40681641 -199.00415039 106.08740234 C-186.21706183 98.93589744 -173.54581773 91.61374373 -160.95800781 84.1171875 C-152.09843134 78.84677847 -143.18687701 73.67272092 -134.25073242 68.53344727 C-124.02646881 62.65285036 -113.83808726 56.71191363 -103.65478516 50.76074219 C-98.66710215 47.84674706 -93.67692467 44.93702979 -88.68701172 42.02685547 C-86.68699991 40.86020904 -84.68699991 39.69354238 -82.68701172 38.52685547 C-78.68701172 36.19352214 -74.68701172 33.8601888 -70.68701172 31.52685547 C-69.69620605 30.94887207 -68.70540039 30.37088867 -67.68457031 29.77539062 C-65.6927556 28.61352574 -63.70089393 27.45174135 -61.70898438 26.29003906 C-55.52962258 22.6860014 -49.35170219 19.07951688 -43.17626953 15.46875 C-41.12300526 14.27085155 -39.06770713 13.07643152 -37.01025391 11.88574219 C-32.79354519 9.44408438 -28.59601991 6.99769405 -24.49169922 4.37060547 C-23.5705835 3.79705322 -23.5705835 3.79705322 -22.63085938 3.21191406 C-21.10135678 2.25470733 -19.58839132 1.27119898 -18.07763672 0.28466797 C-12.12754675 -1.92262347 -6.01793318 -2.17949134 0 0 Z " fill="#ffffff" transform="translate(232.68701171875,16.97314453125)"/>
<path d="M0 0 C2.92779965 1.05187836 5.46567292 2.37513731 8.16137695 3.93237305 C9.82475098 4.88744751 9.82475098 4.88744751 11.52172852 5.86181641 C12.72205412 6.56089287 13.92224605 7.26019891 15.12231445 7.9597168 C16.36912308 8.6796526 17.61619768 9.39912796 18.86352539 10.11816406 C28.66684605 15.78207013 38.4047629 21.55700287 48.13183594 27.35058594 C56.51251654 32.33701907 64.95740789 37.18915192 73.49731445 41.8972168 C73.49731445 42.8872168 73.49731445 43.8772168 73.49731445 44.8972168 C72.94197021 45.20723633 72.38662598 45.51725586 71.81445312 45.83666992 C59.02736457 52.98817483 46.35612046 60.31032854 33.76831055 67.80688477 C24.90873407 73.0772938 15.99717975 78.25135134 7.06103516 83.390625 C-3.16322846 89.27122191 -13.35161 95.21215864 -23.53491211 101.16333008 C-28.52259512 104.0773252 -33.5127726 106.98704247 -38.50268555 109.8972168 C-40.50269735 111.06386323 -42.50269736 112.23052989 -44.50268555 113.3972168 C-48.50268555 115.73055013 -52.50268555 118.06388346 -56.50268555 120.3972168 C-57.98828979 121.26382935 -57.98828979 121.26382935 -59.50390625 122.14794922 C-61.49981362 123.31221498 -63.49574453 124.47644037 -65.49169922 125.640625 C-71.5824243 129.193258 -77.67266209 132.74672044 -83.76098633 136.3034668 C-85.77728539 137.47939949 -87.79516104 138.65263357 -89.81469727 139.82299805 C-94.58668627 142.59092546 -99.32931867 145.39143423 -104.0222168 148.29174805 C-104.88613037 148.81679932 -105.75004395 149.34185059 -106.64013672 149.8828125 C-108.25082049 150.86338679 -109.85205677 151.85972289 -111.44140625 152.87451172 C-116.63339688 156.00470948 -116.63339688 156.00470948 -120.40893555 155.5378418 C-124.81541938 153.20107007 -129.1121663 150.73218446 -133.37768555 148.1472168 C-135.34205908 146.97065013 -137.30692073 145.79489809 -139.2722168 144.61987305 C-140.29138184 144.00901855 -141.31054688 143.39816406 -142.3605957 142.76879883 C-147.5709193 139.66527585 -152.81980717 136.62847425 -158.06518555 133.5847168 C-166.28557897 128.80450082 -174.45272489 123.95988736 -182.50268555 118.8972168 C-179.95073245 116.09039376 -177.05848309 114.17787799 -173.88549805 112.1159668 C-173.32535004 111.75043701 -172.76520203 111.38490723 -172.18807983 111.00830078 C-170.33677436 109.80125379 -168.48222001 108.59929554 -166.62768555 107.3972168 C-165.31949174 106.54538876 -164.01155317 105.69316862 -162.70385742 104.84057617 C-159.98577002 103.06887039 -157.26658967 101.29886059 -154.54663086 99.5300293 C-148.95182337 95.88984904 -143.37042563 92.22925596 -137.78900146 88.56860352 C-134.77754209 86.59382208 -131.76505824 84.62060464 -128.75268555 82.6472168 C-127.54434739 81.85555749 -126.33601406 81.06389083 -125.12768555 80.2722168 C-122.71101888 78.68888346 -120.29435221 77.10555013 -117.87768555 75.5222168 C-117.27954544 75.13033173 -116.68140533 74.73844666 -116.06513977 74.33468628 C-114.85695967 73.54312036 -113.64877892 72.75155541 -112.44059753 71.95999146 C-109.41741449 69.97929147 -106.39424266 67.99857435 -103.37109375 66.01782227 C-97.96164832 62.47360407 -92.55212997 58.92949751 -87.1421814 55.38604736 C-70.35162086 44.38863551 -70.35162086 44.38863551 -53.56933594 33.37860107 C-50.21608164 31.17695207 -46.86160151 28.97722708 -43.50415039 26.78198242 C-37.40272968 22.7898215 -31.31379889 18.78266936 -25.27102661 14.7020874 C-22.59595363 12.89716067 -19.91379623 11.10292634 -17.23095703 9.30957031 C-15.96427304 8.45838837 -14.70116723 7.60185472 -13.44189453 6.73974609 C-11.70652706 5.55211929 -9.95989229 4.38317882 -8.2097168 3.2175293 C-7.22463135 2.54995605 -6.2395459 1.88238281 -5.22460938 1.19458008 C-2.50268555 -0.1027832 -2.50268555 -0.1027832 0 0 Z " fill="#ffffff" transform="translate(342.502685546875,82.102783203125)"/>
</svg>